<svg width="704" height="329" viewBox="0 0 704 329" fill="none" xmlns="http://www.w3.org/2000/svg">
<rect x="91" y="7" width="65" height="65" rx="19" stroke="#71C837" stroke-width="9"/>
<rect x="7" y="259" width="65" height="65" rx="19" stroke="#71C837" stroke-width="9"/>
<rect x="91" y="259" width="65" height="65" rx="19" stroke="#71C837" stroke-width="9"/>
<rect x="175" y="175" width="65" height="65" rx="19" stroke="#71C837" stroke-width="9"/>
<rect x="7" y="175" width="65" height="65" rx="19" stroke="#71C837" stroke-width="9"/>
<rect x="91" y="175" width="65" height="65" rx="19" stroke="#71C837" stroke-width="9"/>
<rect x="91" y="91" width="65" height="65" rx="19" stroke="#71C837" stroke-width="9"/>
<rect x="7" y="91" width="65" height="65" rx="19" stroke="#71C837" stroke-width="9"/>
<rect x="175" y="7" width="65" height="65" rx="19" stroke="#71C837" stroke-width="9"/>
<rect x="5" y="5" width="70" height="69" rx="34.5" stroke="#D40000" stroke-width="9"/>
<path d="M324.72 196.128H314.16V125.088H324.72V196.128ZM381.42 196.512H371.436V164.352C371.436 156.096 368.428 151.968 362.412 151.968C358.316 151.968 355.212 153.6 353.1 156.864C351.372 159.68 350.508 163.296 350.508 167.712V196.512H340.524V157.44C340.524 154.944 340.46 152.608 340.332 150.432C340.268 148.192 340.172 146.08 340.044 144.096H349.644V149.376C352.78 145.088 357.42 142.944 363.564 142.944C375.468 142.944 381.42 149.568 381.42 162.816V196.512ZM424.087 154.56C419.863 152.768 415.863 151.872 412.087 151.872C406.775 151.872 404.119 153.952 404.119 158.112C404.119 159.968 406.135 161.888 410.167 163.872C415.991 166.752 419.735 168.864 421.399 170.208C425.367 173.472 427.351 177.504 427.351 182.304C427.351 187.68 425.207 191.744 420.919 194.496C417.527 196.608 413.463 197.664 408.727 197.664C402.967 197.664 397.975 196.8 393.751 195.072L394.711 185.184C399.383 187.488 403.959 188.64 408.439 188.64C410.999 188.64 413.111 187.968 414.775 186.624C416.311 185.408 417.079 183.808 417.079 181.824C417.079 179.264 415.127 176.896 411.223 174.72C407.575 172.736 404.855 171.232 403.063 170.208C401.271 169.184 400.343 168.64 400.279 168.576C396.375 165.632 394.423 162.016 394.423 157.728C394.423 152.48 396.375 148.576 400.279 146.016C403.415 143.968 407.223 142.944 411.703 142.944C416.695 142.944 421.175 143.808 425.143 145.536L424.087 154.56ZM463.718 196.128C461.286 197.152 458.534 197.664 455.462 197.664C449.382 197.664 445.446 196.032 443.654 192.768C442.31 190.592 441.638 186.4 441.638 180.192V153.024H433.382V143.52H441.638V132.096L452.006 128.736V143.52H462.182V153.024H452.006V182.88C452.006 186.592 453.702 188.448 457.094 188.448C459.334 188.448 461.286 188.032 462.95 187.2L463.718 196.128ZM483.521 196.512H473.249V142.752H483.521V196.512ZM483.521 133.536H473.249V121.536H483.521V133.536ZM523.531 196.128C521.099 197.152 518.347 197.664 515.275 197.664C509.195 197.664 505.259 196.032 503.467 192.768C502.123 190.592 501.451 186.4 501.451 180.192V153.024H493.195V143.52H501.451V132.096L511.819 128.736V143.52H521.995V153.024H511.819V182.88C511.819 186.592 513.515 188.448 516.907 188.448C519.147 188.448 521.099 188.032 522.763 187.2L523.531 196.128ZM565.798 196.608V191.328C562.342 195.552 557.798 197.664 552.166 197.664C545.894 197.664 541.126 195.776 537.862 192C534.982 188.48 533.542 183.744 533.542 177.792V144.192H543.814V175.872C543.814 184.384 546.918 188.64 553.126 188.64C557.286 188.64 560.454 187.072 562.63 183.936C564.358 181.376 565.222 177.888 565.222 173.472V144.192H575.398V183.36C575.398 188.096 575.59 192.512 575.974 196.608H565.798ZM616.625 196.128C614.193 197.152 611.441 197.664 608.369 197.664C602.289 197.664 598.353 196.032 596.561 192.768C595.217 190.592 594.545 186.4 594.545 180.192V153.024H586.289V143.52H594.545V132.096L604.913 128.736V143.52H615.089V153.024H604.913V182.88C604.913 186.592 606.609 188.448 610.001 188.448C612.241 188.448 614.193 188.032 615.857 187.2L616.625 196.128ZM647.66 151.968C643.308 151.968 639.852 153.696 637.292 157.152C634.86 160.544 633.644 164.928 633.644 170.304C633.644 175.68 634.86 180.064 637.292 183.456C639.852 186.912 643.308 188.64 647.66 188.64C652.012 188.64 655.436 186.912 657.932 183.456C660.428 180.128 661.676 175.744 661.676 170.304C661.676 164.928 660.428 160.544 657.932 157.152C655.436 153.696 652.012 151.968 647.66 151.968ZM647.66 142.944C655.596 142.944 661.772 145.792 666.188 151.488C670.156 156.544 672.14 162.816 672.14 170.304C672.14 177.792 670.156 184.064 666.188 189.12C661.772 194.816 655.596 197.664 647.66 197.664C639.66 197.664 633.452 194.816 629.036 189.12C625.132 184.192 623.18 177.92 623.18 170.304C623.18 162.688 625.132 156.416 629.036 151.488C633.452 145.792 639.66 142.944 647.66 142.944ZM348.816 238.88H324.72V258.656H347.472V268.544H324.72V300.128H314.256V229.088H348.816V238.88ZM400.5 277.952H368.148C368.34 282.56 369.588 286.144 371.892 288.704C374.26 291.456 377.524 292.832 381.684 292.832C387.444 292.832 392.532 291.584 396.948 289.088V298.784C391.828 300.704 386.644 301.664 381.396 301.664C373.14 301.664 366.996 299.04 362.964 293.792C359.444 289.12 357.684 282.592 357.684 274.208C357.684 266.144 359.636 259.584 363.54 254.528C367.444 249.472 372.692 246.944 379.284 246.944C386.644 246.944 392.148 249.568 395.796 254.816C398.932 259.296 400.5 265.216 400.5 272.576V277.952ZM390.036 268.832C390.036 265.248 389.108 262.24 387.252 259.808C385.332 257.248 382.804 255.968 379.668 255.968C376.468 255.968 373.748 257.28 371.508 259.904C369.268 262.528 368.148 265.504 368.148 268.832H390.036ZM433.325 255.2C428.973 255.2 425.741 257.152 423.629 261.056C421.837 264.256 420.941 268.608 420.941 274.112C420.941 286.336 425.069 292.448 433.325 292.448C437.293 292.448 440.429 290.464 442.733 286.496C444.589 283.104 445.517 278.88 445.517 273.824C445.517 268.768 444.589 264.544 442.733 261.152C440.493 257.184 437.357 255.2 433.325 255.2ZM455.213 300.608H445.517V295.808C442.317 299.776 437.933 301.76 432.365 301.76C425.389 301.76 419.981 299.168 416.141 293.984C412.557 288.928 410.765 282.304 410.765 274.112C410.765 265.664 412.429 259.008 415.757 254.144C419.405 248.704 424.941 245.984 432.365 245.984C437.485 245.984 441.869 248.096 445.517 252.32V223.52H455.213V300.608ZM511.031 277.952H478.679C478.871 282.56 480.119 286.144 482.423 288.704C484.791 291.456 488.055 292.832 492.215 292.832C497.975 292.832 503.063 291.584 507.479 289.088V298.784C502.359 300.704 497.175 301.664 491.927 301.664C483.671 301.664 477.527 299.04 473.495 293.792C469.975 289.12 468.215 282.592 468.215 274.208C468.215 266.144 470.167 259.584 474.071 254.528C477.975 249.472 483.223 246.944 489.815 246.944C497.175 246.944 502.679 249.568 506.327 254.816C509.463 259.296 511.031 265.216 511.031 272.576V277.952ZM500.567 268.832C500.567 265.248 499.639 262.24 497.783 259.808C495.863 257.248 493.335 255.968 490.199 255.968C486.999 255.968 484.279 257.28 482.039 259.904C479.799 262.528 478.679 265.504 478.679 268.832H500.567ZM548.464 257.6C547.632 257.472 546.864 257.376 546.16 257.312C545.456 257.184 544.752 257.12 544.048 257.12C540.336 257.12 537.584 258.944 535.792 262.592C534.128 265.792 533.296 269.76 533.296 274.496V300.512H523.024V260.96C523.024 258.528 522.96 256.256 522.832 254.144C522.768 251.968 522.672 249.952 522.544 248.096H532.912V254.528C535.856 249.472 539.6 246.944 544.144 246.944C545.552 246.944 546.992 247.136 548.464 247.52V257.6ZM586.123 300.608V295.52C582.987 299.616 578.475 301.664 572.587 301.664C566.187 301.664 561.451 299.872 558.379 296.288C556.203 293.664 555.115 290.464 555.115 286.688C555.115 273.632 564.715 267.104 583.915 267.104H585.355V265.376C585.355 259.104 582.443 255.968 576.619 255.968C571.371 255.968 566.187 257.344 561.067 260.096V250.688C565.931 248.192 571.307 246.944 577.195 246.944C583.339 246.944 587.819 248.384 590.635 251.264C593.643 254.4 595.147 259.264 595.147 265.856V288.224C595.147 294.112 595.339 298.24 595.723 300.608H586.123ZM585.355 276.032H583.339C578.347 276.032 574.507 276.48 571.819 277.376C567.531 278.784 565.387 281.568 565.387 285.728C565.387 290.336 568.043 292.64 573.355 292.64C581.355 292.64 585.355 287.776 585.355 278.048V276.032ZM620.387 300.128H609.923V223.712H620.387V300.128Z" fill="black"/>
</svg>
